<svg xmlns="http://www.w3.org/2000/svg" width="68.723" height="46.986" viewBox="0 0 68.723 46.986">
  <g id="BARIBUS_LOGO_1_" data-name="BARIBUS_LOGO (1)" transform="translate(-30.552 -21)">
    <g id="Group_759" data-name="Group 759" transform="translate(37.457 21.634)">
      <path id="Path_662" data-name="Path 662" d="M285.254,70.056c2.219,0,6.043-.646,7.648-2.368a12.488,12.488,0,0,0,2.932-10.98c1.486-.581,7.153-3.186,7.153-9.731a10.232,10.232,0,0,0-6.816-9.666h-.04c3.646-10.226-5.469-13.111-8.54-13.111H284.6l3.626,9.43,6.618,13.477-9.59,18.472Z" transform="translate(-241.168 -24.2)" fill="#231f20"/>
      <path id="Path_663" data-name="Path 663" d="M78.118,43.526S74.294,44.51,75.226,47a12.738,12.738,0,0,0,1.585,3.26s1.387,4.529,2.952,8.227c.951,2.232,1.962,4.967,4.617,5.1.059,0,.079.044.1.044h.02l-8.956,6.28s-4.022,6.63-1.149,7.286c2.873.635-2.873,2.385-2.873,2.385s-5.27-1.9-5.548-3.063c-.258-1.16-.931-8.1-.337-8.446.594-.372,4.617-3.282,4.755-4.726.139-1.466,1.189-7.5.733-8.752s-3.091-4.814-2.913-7.724c.2-2.91,1.724-4.879,2.318-5.1s9.293-.875,9.293-.875Z" transform="translate(-65.397 -37.591)" fill="#231f20"/>
    </g>
    <path id="Path_664" data-name="Path 664" d="M96.224,44.332a10.426,10.426,0,0,0-6.816-9.9h-.04C93.014,23.965,83.9,21,80.829,21H34.5c-2.437,0-3.19,1.654-3.349,3.223a6.639,6.639,0,0,0,.812,3.91l4.359,7.906h0l2.794,5.049a5.99,5.99,0,0,1,.1,5.586l-3.448,6.81-1.01,1.977L30.879,63a2.949,2.949,0,0,0-.277,1.891c.594,3.094,4.24,3.094,4.24,3.094H79.957a8.342,8.342,0,0,0,6.2-2.406,13.039,13.039,0,0,0,2.932-11.258C90.577,53.72,96.224,51.056,96.224,44.332ZM45.105,27.853h35.9s2.041,0,2.239,2.578c.159,2.256-.951,3.523-1.724,3.8H49.107a6.115,6.115,0,0,0-4.716,2.3,21.137,21.137,0,0,1-1.526-2.707l-.376-.816S39.141,27.853,45.105,27.853Zm37.487,29.97c-.02.9-.614,3.072-2.358,3.072H45.264a4.867,4.867,0,0,1-2.437-.623,2.533,2.533,0,0,1-1.11-3.674l.555-1.139,2.536-5.2s2.041,4.254,4.953,4.254c.991,0,5.369-.064,6.6-.064l23.618.064.079.064c.5.172,2.338.816,2.556,2.3A8.246,8.246,0,0,1,82.592,57.824ZM86,47.769l-30.513-.215c-1.209,0-4.577-.021-5.944-1.139-1.6-1.311-1.684-2.428-1.189-3.545a3.317,3.317,0,0,1,.317-.43c.535-.73,1.545-1.354,4.22-1.354H85.267s3.9,0,3.9,3.008C89.171,44.117,89.349,47.769,86,47.769Z" fill="#ffb900"/>
  </g>
</svg>
